<?xml version="1.0" standalone="no"?>
<!DOCTYPE svg PUBLIC "-//W3C//DTD SVG 20010904//EN"
 "http://www.w3.org/TR/2001/REC-SVG-20010904/DTD/svg10.dtd">
<svg version="1.0" xmlns="http://www.w3.org/2000/svg"
 width="2012.000000pt" height="1946.000000pt" viewBox="0 0 2012.000000 1946.000000"
 preserveAspectRatio="xMidYMid meet">

<g transform="translate(0.000000,1946.000000) scale(0.100000,-0.100000)"
fill="#000000" stroke="none">
<path d="M4681 15044 c-1379 -136 -2596 -907 -3309 -2094 -313 -521 -496
-1061 -589 -1730 -16 -117 -17 -434 -20 -4692 l-3 -4568 3000 0 3000 0 0 2885
0 2885 1533 0 1532 0 57 24 c66 27 102 55 146 112 68 87 66 73 70 662 l3 532
2537 0 c1669 0 2568 4 2627 10 424 49 806 247 1084 562 l86 98 115 4 c77 3
559 66 1475 194 748 104 1384 193 1413 197 l52 7 0 1939 c0 1221 -4 1939 -10
1939 -11 0 -140 18 -1625 226 -857 120 -1225 168 -1314 170 -121 4 -124 5
-144 32 -49 64 -199 210 -282 274 -199 155 -393 246 -670 315 l-110 28 -5260
1 c-4321 2 -5284 -1 -5394 -12z m10573 -664 c230 -35 464 -171 613 -355 78
-97 165 -268 196 -385 l22 -85 0 -1490 0 -1490 -22 -82 c-99 -373 -361 -634
-738 -736 l-80 -22 -4160 -5 -4160 -5 -77 -22 c-186 -53 -331 -136 -459 -263
-158 -156 -258 -358 -289 -581 -9 -63 -12 -612 -9 -2224 1 -1177 2 -2560 1
-3072 l-2 -933 -2328 0 -2329 0 -6 1588 c-7 2047 7 6813 21 6902 6 36 16 126
22 200 9 114 18 154 55 265 23 71 53 166 65 210 60 216 228 594 364 819 157
258 336 487 551 701 564 564 1282 925 2070 1039 168 25 197 27 540 34 532 12
10059 4 10139 -8z m2711 -860 c517 -72 952 -133 968 -136 l27 -6 0 -1308 0
-1309 -32 -6 c-18 -3 -454 -64 -968 -135 -514 -71 -950 -132 -967 -135 l-33
-6 0 1592 0 1591 33 -6 c17 -3 455 -64 972 -136z m-8545 -4790 l0 -330 -1330
0 -1330 0 0 183 c0 206 9 254 63 333 42 62 93 102 159 125 50 17 117 18 1246
19 l1192 0 0 -330z"/>
</g>
</svg>
