<svg id="Layer_3" height="512" viewBox="0 0 64 64" width="512" xmlns="http://www.w3.org/2000/svg" data-name="Layer 3"><path d="m44 1a18.9 18.9 0 0 0 -6.123 1.031 8.175 8.175 0 0 0 -3.877-1.031h-18c-8.411 0-15 13.617-15 31s6.589 31 15 31h18c7.255 0 13.243-10.084 14.683-24.608a18.988 18.988 0 0 0 -4.683-37.392zm-19.425 59.975c-2.791-.212-5.391-2.5-7.5-6.174l3.082.77a17.936 17.936 0 0 0 4.418 5.404zm-8.7-8.537c-.367-.815-.711-1.681-1.034-2.586l3.131.9q.468 1.29 1 2.466zm-8.875-20.438q0-.773.02-1.537l3.027-.865c-.028.793-.047 1.592-.047 2.402 0 .178.005.353.006.53l-2.99.854q-.016-.684-.016-1.384zm8.1-3.583-2.939-.84q.1-1.443.274-2.842l2.88.823c-.095.936-.165 1.891-.215 2.859zm-.08 2.056c-.013.506-.02 1.015-.02 1.527 0 .431.007.858.015 1.284l-3.015-1.004c0-.094 0-.186 0-.28 0-.8.019-1.59.049-2.375zm-2.97 3.927 3.038 1.013q.08 1.557.229 3.062l-3.06-.874c-.097-1.045-.164-2.114-.207-3.201zm3.5-10.859-2.836-.81q.228-1.446.52-2.825l2.79.654q-.274 1.459-.476 2.985zm-5.496 11.059q.055 1.458.173 2.871l-2.9.828q-.147-1.409-.227-2.859zm4.046 12.961c-.267-.916-.514-1.865-.735-2.845l3.1.886c.227.982.48 1.932.753 2.85zm-1.181-5.052q-.243-1.349-.426-2.756l3.076.879q.191 1.41.442 2.761zm3.5-23.9-2.738-.642c.281-1.1.591-2.164.932-3.174l2.609.745q-.436 1.476-.798 3.062zm1.42-4.974-2.532-.724a29.924 29.924 0 0 1 1.556-3.333l2.356.674a35 35 0 0 0 -1.375 3.378zm2.315-5.2-2.206-.635c1.934-2.854 4.209-4.593 6.627-4.777a17.925 17.925 0 0 0 -4.416 5.411zm-.584-5.409a16.751 16.751 0 0 0 -3.734 4.266l-3.151.9c1.992-3.086 4.363-4.975 6.89-5.167zm-8.27 7.643 3.158-.9q-.627 1.268-1.177 2.685l-3.139.9c.358-.949.744-1.847 1.158-2.685zm-1.962 4.988 3.125-.892q-.439 1.38-.806 2.865l-3.11.888q.359-1.481.791-2.861zm-1.277 5.08 3.094-.884q-.271 1.353-.482 2.772l-3.08.88q.207-1.414.468-2.768zm-.73 4.922 3.066-.876q-.149 1.331-.243 2.7l-3.043.869q.081-1.363.22-2.693zm3.1 13.83q.167 1.434.394 2.808l-2.793.8c-.174-.908-.327-1.84-.459-2.789zm.755 4.785q.334 1.644.757 3.18l-2.685.626c-.3-.969-.564-1.982-.807-3.025zm1.324 5.1q.538 1.671 1.179 3.173l-2.466.617a33.334 33.334 0 0 1 -1.327-3.18zm2.028 5.026a19.1 19.1 0 0 0 5.037 6.579c-2.744-.208-5.3-2.42-7.391-5.99zm2.462-22.4c0-14.4 5-26.749 11.255-28.719-5.481 4.573-9.255 15.565-9.255 28.719s3.774 24.146 9.255 28.719c-6.255-1.97-11.255-14.319-11.255-28.719zm-14 0c0-14.4 5-26.749 11.255-28.719-5.481 4.573-9.255 15.565-9.255 28.719s3.774 24.146 9.255 28.719c-6.255-1.97-11.255-14.319-11.255-28.719zm31 29c-7.047 0-13-13.28-13-29s5.953-29 13-29a5.711 5.711 0 0 1 1.247.154 18.883 18.883 0 0 0 -9.747 21.114 58.5 58.5 0 0 0 -.5 7.732c0 14.939 4.637 23 9 23 4.117 0 7.445-6.279 8.595-16.071.466.034.931.071 1.405.071a19.048 19.048 0 0 0 2.633-.2c-1.407 12.742-6.733 22.2-12.633 22.2zm-6.9-32.358a19.035 19.035 0 0 0 13.511 10.038c-1.095 9.3-4.175 14.32-6.611 14.32-3.311 0-7-8.625-7-21 0-1.134.038-2.253.1-3.358zm16.9 8.358a17 17 0 1 1 17-17 17.019 17.019 0 0 1 -17 17z"/><path d="m55.168 16.445-1.703 2.555h-1.847l.277-.553-1.79-.894-.723 1.447h-2.968l2.206-2.206 2.292.202.176-1.992-.623-.055.935-.935 3.01.603.393-1.961-1.703-.341 1.507-1.508-1.414-1.414-1.508 1.508-.34-1.704-1.961.393.602 3.01-.935.935-.055-.622-1.992.174.201 2.294-2.205 2.205v-3.172l1.707-1.707-1.414-1.414-.293.293v-1.051l2.555-1.703-1.11-1.664-1.445.964v-2.133h-2v2.133l-1.445-.964-1.11 1.664 2.555 1.703v1.051l-.293-.293-1.414 1.414 1.707 1.707v3.172l-2.205-2.205.201-2.294-1.992-.174-.055.622-.935-.935.602-3.01-1.961-.393-.34 1.704-1.508-1.508-1.414 1.414 1.507 1.508-1.703.341.393 1.961 3.01-.603.935.935-.623.055.176 1.992 2.292-.202 2.206 2.206h-2.968l-.723-1.447-1.79.894.277.553h-1.847l-1.703-2.555-1.664 1.11.963 1.445h-2.132v2h2.132l-.963 1.445 1.664 1.11 1.703-2.555h1.847l-.277.553 1.79.894.723-1.447h2.968l-2.206 2.206-2.292-.202-.176 1.992.623.055-.935.935-3.01-.603-.393 1.961 1.703.341-1.507 1.508 1.414 1.414 1.508-1.508.34 1.704 1.961-.393-.602-3.01.935-.935.055.622 1.992-.174-.201-2.294 2.205-2.205v2.968l-1.447.723.894 1.79.553-.277v1.847l-2.555 1.703 1.11 1.664 1.445-.964v2.133h2v-2.133l1.445.964 1.11-1.664-2.555-1.703v-1.847l.553.277.894-1.79-1.447-.723v-2.968l2.205 2.205-.201 2.294 1.992.174.055-.622.935.935-.602 3.01 1.961.393.34-1.704 1.508 1.508 1.414-1.414-1.507-1.508 1.703-.341-.393-1.961-3.01.603-.935-.935.623-.055-.176-1.992-2.292.202-2.206-2.206h2.968l.723 1.447 1.79-.894-.277-.553h1.847l1.703 2.555 1.664-1.11-.963-1.445h2.132v-2h-2.132l.963-1.445z"/></svg>